<svg xmlns="http://www.w3.org/2000/svg" viewBox="90.97 181.474 396.9800579833984 212.05155286083874"> <svg xmlns="http://www.w3.org/2000/svg" id="Layer_1" dataName="Layer 1" viewBox="130.41000366210938 134.89999389648438 251.17999267578125 242.20001220703125" height="72.05155286083874" width="74.72298431396484" y="251.474" x="160.97" preserveAspectRatio="xMinYMin" fill="#b16377" stroke="#b16377" style="overflow: visible;"><polygon class="cls-1" points="367.56 208.21 367.56 134.9 307.05 136.11 307.65 159.86 288.43 143.98 130.41 225.84 130.61 236.34 130.61 377.1 381.39 377.1 381.39 236.35 381.59 221.49 367.56 208.21" style="fill: #4A73E8; stroke: #4A73E8; fill-opacity: 1; stroke-opacity: 1;"></polygon><polygon class="cls-2" points="354.13 218.96 356.2 154.22 319.87 153.72 319.39 186.19 290.89 161.19 149.07 234.26 149.24 243.15 149.24 362.35 367.4 362.35 367.4 243.15 367.56 231.63 354.13 218.96" style="fill: #F5F5F5; stroke: #F5F5F5; fill-opacity: 1; stroke-opacity: 1;"></polygon><rect class="cls-1" x="159.73" y="245.9" width="196.52" height="106.79" style="fill: #4A73E8; stroke: #4A73E8; fill-opacity: 1; stroke-opacity: 1;"></rect><polygon class="cls-1" points="345.96 224.84 347.93 163.29 328.45 162.67 327.03 207.11 291.68 173.99 159.57 237.94 356.41 234.63 345.96 224.84" style="fill: #4A73E8; stroke: #4A73E8; fill-opacity: 1; stroke-opacity: 1;"></polygon></svg> <svg y="276.96549102783206" viewBox="3.4600000381469727 12.479999542236328 63.980003356933594 46.560001373291016" x="353.97005462646484" height="46.560001373291016" width="63.980003356933594" style="overflow: visible;"><g fill="#2563EB" fill-opacity="1" style=""><path d="M17.42 48.48L17.42 48.48Q15.74 48.48 14.14 47.98Q12.53 47.47 11.23 46.61Q9.94 45.74 9.07 44.66Q8.21 43.58 7.92 42.48L7.92 42.48L9.31 41.86L9.17 47.90L3.46 47.90L3.46 12.48L9.36 12.48L9.36 28.56L8.30 28.08Q8.54 26.93 9.38 25.90Q10.22 24.86 11.47 24.02Q12.72 23.18 14.21 22.68Q15.70 22.18 17.23 22.18L17.23 22.18Q20.64 22.18 23.26 23.86Q25.87 25.54 27.38 28.51Q28.90 31.49 28.90 35.28L28.90 35.28Q28.90 39.12 27.41 42.10Q25.92 45.07 23.30 46.78Q20.69 48.48 17.42 48.48ZM16.18 43.30L16.18 43.30Q18.19 43.30 19.78 42.26Q21.36 41.23 22.27 39.43Q23.18 37.63 23.18 35.28L23.18 35.28Q23.18 32.98 22.30 31.20Q21.41 29.42 19.82 28.42Q18.24 27.41 16.18 27.41L16.18 27.41Q14.11 27.41 12.53 28.42Q10.94 29.42 10.03 31.20Q9.12 32.98 9.12 35.28L9.12 35.28Q9.12 37.63 10.03 39.43Q10.94 41.23 12.53 42.26Q14.11 43.30 16.18 43.30ZM38.26 48L32.30 48L32.30 12.48L38.26 12.48L38.26 48ZM52.56 59.04L46.42 59.04L51.79 46.61L51.84 50.54L39.36 22.70L46.18 22.70L53.14 39.22Q53.47 39.84 53.81 40.87Q54.14 41.90 54.38 42.91L54.38 42.91L53.18 43.30Q53.52 42.38 53.90 41.35Q54.29 40.32 54.62 39.22L54.62 39.22L60.58 22.70L67.44 22.70L56.88 48L52.56 59.04Z" transform="translate(0, 0)"></path></g></svg> <svg y="275.23563690185546" viewBox="2.2100000381469727 10.460000038146973 88.02999877929688 38.02000045776367" x="263.18505264282226" height="38.02000045776367" width="88.02999877929688" style="overflow: visible;"><g fill="#545454" fill-opacity="1" style=""><path d="M18.77 48.48L18.77 48.48Q15.12 48.48 12.10 47.23Q9.07 45.98 6.86 43.66Q4.66 41.33 3.43 38.14Q2.21 34.94 2.21 31.15L2.21 31.15Q2.21 27.50 3.50 24.38Q4.80 21.26 7.10 18.91Q9.41 16.56 12.48 15.26Q15.55 13.97 19.15 13.97L19.15 13.97Q21.60 13.97 23.90 14.69Q26.21 15.41 28.13 16.68Q30.05 17.95 31.34 19.63L31.34 19.63L27.36 24Q26.11 22.70 24.79 21.82Q23.47 20.93 22.06 20.47Q20.64 20.02 19.15 20.02L19.15 20.02Q16.94 20.02 15 20.83Q13.06 21.65 11.64 23.14Q10.22 24.62 9.41 26.66Q8.59 28.70 8.59 31.20L8.59 31.20Q8.59 33.74 9.38 35.81Q10.18 37.87 11.64 39.36Q13.10 40.85 15.14 41.64Q17.18 42.43 19.63 42.43L19.63 42.43Q21.22 42.43 22.70 42Q24.19 41.57 25.46 40.78Q26.74 39.98 27.79 38.93L27.79 38.93L30.86 43.87Q29.71 45.17 27.79 46.22Q25.87 47.28 23.50 47.88Q21.12 48.48 18.77 48.48ZM40.32 48L34.37 48L34.37 22.70L40.18 22.70L40.27 30.77L39.46 28.94Q39.98 27.02 41.28 25.49Q42.58 23.95 44.28 23.06Q45.98 22.18 47.86 22.18L47.86 22.18Q48.67 22.18 49.42 22.32Q50.16 22.46 50.64 22.66L50.64 22.66L49.06 29.14Q48.53 28.85 47.76 28.66Q46.99 28.46 46.22 28.46L46.22 28.46Q45.02 28.46 43.94 28.92Q42.86 29.38 42.05 30.19Q41.23 31.01 40.78 32.09Q40.32 33.17 40.32 34.51L40.32 34.51L40.32 48ZM59.23 48L53.33 48L53.33 22.70L59.23 22.70L59.23 48ZM56.21 17.33L56.21 17.33Q54.43 17.33 53.45 16.44Q52.46 15.55 52.46 13.92L52.46 13.92Q52.46 12.38 53.47 11.42Q54.48 10.46 56.21 10.46L56.21 10.46Q58.03 10.46 59.02 11.35Q60 12.24 60 13.92L60 13.92Q60 15.41 58.99 16.37Q57.98 17.33 56.21 17.33ZM78.77 48.48L78.77 48.48Q77.09 48.48 75.48 47.98Q73.87 47.47 72.58 46.61Q71.28 45.74 70.42 44.66Q69.55 43.58 69.26 42.48L69.26 42.48L70.66 41.86L70.51 47.90L64.80 47.90L64.80 12.48L70.70 12.48L70.70 28.56L69.65 28.08Q69.89 26.93 70.73 25.90Q71.57 24.86 72.82 24.02Q74.06 23.18 75.55 22.68Q77.04 22.18 78.58 22.18L78.58 22.18Q81.98 22.18 84.60 23.86Q87.22 25.54 88.73 28.51Q90.24 31.49 90.24 35.28L90.24 35.28Q90.24 39.12 88.75 42.10Q87.26 45.07 84.65 46.78Q82.03 48.48 78.77 48.48ZM77.52 43.30L77.52 43.30Q79.54 43.30 81.12 42.26Q82.70 41.23 83.62 39.43Q84.53 37.63 84.53 35.28L84.53 35.28Q84.53 32.98 83.64 31.20Q82.75 29.42 81.17 28.42Q79.58 27.41 77.52 27.41L77.52 27.41Q75.46 27.41 73.87 28.42Q72.29 29.42 71.38 31.20Q70.46 32.98 70.46 35.28L70.46 35.28Q70.46 37.63 71.38 39.43Q72.29 41.23 73.87 42.26Q75.46 43.30 77.52 43.30Z" transform="translate(0, 0)"></path></g></svg></svg>